<svg width="17" height="16" viewBox="0 0 17 16" fill="none" xmlns="http://www.w3.org/2000/svg">
<path d="M1.125 3V13C1.125 13.3315 1.2567 13.6495 1.49112 13.8839C1.72554 14.1183 2.04348 14.25 2.375 14.25H14.875C15.0408 14.25 15.1997 14.1842 15.3169 14.0669C15.4342 13.9497 15.5 13.7908 15.5 13.625V4.875C15.5 4.70924 15.4342 4.55027 15.3169 4.43306C15.1997 4.31585 15.0408 4.25 14.875 4.25H2.375C2.04348 4.25 1.72554 4.1183 1.49112 3.88388C1.2567 3.64946 1.125 3.33152 1.125 3ZM1.125 3C1.125 2.66848 1.2567 2.35054 1.49112 2.11612C1.72554 1.8817 2.04348 1.75 2.375 1.75H12.375" stroke="white" stroke-width="2" stroke-linecap="round" stroke-linejoin="round"/>
</svg>
